<svg width="400" height="300" viewBox="0 0 400 300" xmlns="http://www.w3.org/2000/svg">
  <rect width="100%" height="100%" fill="#FAF8F5"/>
  <rect x="12" y="12" width="376" height="276" fill="none" stroke="#A6472A" stroke-width="1.5" stroke-dasharray="6 4" rx="4"/>
  <g transform="translate(176, 45) scale(2)">
    <path d="M12 21.35l-1.45-1.32C5.4 15.36 2 12.28 2 8.5 2 5.42 4.42 3 7.5 3c1.74 0 3.41.81 4.5 2.09C13.09 3.81 14.76 3 16.5 3 19.58 3 22 5.42 22 8.5c0 3.78-3.4 6.86-8.55 11.54L12 21.35z" fill="#A6472A" fill-opacity="0.15" stroke="#A6472A" stroke-width="1.5"/>
  </g>
  <text x="50%" y="160" font-family="'Work Sans', sans-serif" font-size="18" font-weight="600" fill="#24201B" text-anchor="middle" letter-spacing="-0.02em">
    <tspan x="50%" dy="0">Lamb (10% Bone)</tspan>
  </text>
  <g transform="translate(140, 240)">
    <rect width="120" height="22" rx="11" fill="#A6472A" fill-opacity="0.1"/>
    <text x="60" y="14" font-family="'IBM Plex Mono', monospace" font-size="9" font-weight="600" fill="#A6472A" text-anchor="middle" letter-spacing="0.1em">
      RAW
    </text>
  </g>
</svg>